<mxfile host="app.diagrams.net" modified="2023-12-12T14:44:00.251Z" agent="Mozilla/5.0 (Windows NT 10.0; Win64; x64) AppleWebKit/537.36 (KHTML, like Gecko) Chrome/119.0.0.0 Safari/537.36" etag="CUHrUkuU6wcN5CbtPbyx" version="22.1.7" type="device">
  <diagram name="1 oldal" id="kQyhqsLt1N4-YeRwnBx1">
    <mxGraphModel dx="2977" dy="773" grid="1" gridSize="10" guides="1" tooltips="1" connect="1" arrows="1" fold="1" page="1" pageScale="1" pageWidth="827" pageHeight="1169" math="0" shadow="0">
      <root>
        <mxCell id="0" />
        <mxCell id="1" parent="0" />
        <mxCell id="gRaJhLfHDioGuFZC0slq-1" value="MPW46D_cukrászda" style="ellipse;whiteSpace=wrap;html=1;" parent="1" vertex="1">
          <mxGeometry x="790" y="20" width="120" height="80" as="geometry" />
        </mxCell>
        <mxCell id="gRaJhLfHDioGuFZC0slq-80" style="rounded=0;orthogonalLoop=1;jettySize=auto;html=1;exitX=0.5;exitY=0;exitDx=0;exitDy=0;entryX=0.5;entryY=1;entryDx=0;entryDy=0;endArrow=none;endFill=0;" parent="1" source="gRaJhLfHDioGuFZC0slq-2" target="gRaJhLfHDioGuFZC0slq-10" edge="1">
          <mxGeometry relative="1" as="geometry" />
        </mxCell>
        <mxCell id="gRaJhLfHDioGuFZC0slq-2" value="név" style="ellipse;whiteSpace=wrap;html=1;" parent="1" vertex="1">
          <mxGeometry x="60" y="370" width="100" height="60" as="geometry" />
        </mxCell>
        <mxCell id="gRaJhLfHDioGuFZC0slq-81" style="rounded=0;orthogonalLoop=1;jettySize=auto;html=1;exitX=0.5;exitY=0;exitDx=0;exitDy=0;entryX=0.5;entryY=1;entryDx=0;entryDy=0;endArrow=none;endFill=0;" parent="1" source="gRaJhLfHDioGuFZC0slq-3" target="gRaJhLfHDioGuFZC0slq-10" edge="1">
          <mxGeometry relative="1" as="geometry">
            <mxPoint x="200" y="320" as="targetPoint" />
          </mxGeometry>
        </mxCell>
        <mxCell id="gRaJhLfHDioGuFZC0slq-3" value="cím" style="ellipse;whiteSpace=wrap;html=1;" parent="1" vertex="1">
          <mxGeometry x="350" y="370" width="100" height="60" as="geometry" />
        </mxCell>
        <mxCell id="gRaJhLfHDioGuFZC0slq-63" style="rounded=0;orthogonalLoop=1;jettySize=auto;html=1;exitX=0.5;exitY=0;exitDx=0;exitDy=0;entryX=0.5;entryY=1;entryDx=0;entryDy=0;endArrow=none;endFill=0;" parent="1" source="gRaJhLfHDioGuFZC0slq-4" target="gRaJhLfHDioGuFZC0slq-7" edge="1">
          <mxGeometry relative="1" as="geometry" />
        </mxCell>
        <mxCell id="gRaJhLfHDioGuFZC0slq-4" value="név" style="ellipse;whiteSpace=wrap;html=1;" parent="1" vertex="1">
          <mxGeometry x="1880" y="370" width="100" height="60" as="geometry" />
        </mxCell>
        <mxCell id="gRaJhLfHDioGuFZC0slq-53" style="rounded=0;orthogonalLoop=1;jettySize=auto;html=1;exitX=0.5;exitY=0;exitDx=0;exitDy=0;entryX=0.5;entryY=1;entryDx=0;entryDy=0;endArrow=none;endFill=0;" parent="1" source="gRaJhLfHDioGuFZC0slq-5" target="gRaJhLfHDioGuFZC0slq-8" edge="1">
          <mxGeometry relative="1" as="geometry" />
        </mxCell>
        <mxCell id="gRaJhLfHDioGuFZC0slq-5" value="helyszín" style="ellipse;whiteSpace=wrap;html=1;" parent="1" vertex="1">
          <mxGeometry x="2546" y="370" width="100" height="60" as="geometry" />
        </mxCell>
        <mxCell id="gRaJhLfHDioGuFZC0slq-52" style="rounded=0;orthogonalLoop=1;jettySize=auto;html=1;exitX=0.5;exitY=0;exitDx=0;exitDy=0;entryX=0.5;entryY=1;entryDx=0;entryDy=0;endArrow=none;endFill=0;" parent="1" source="gRaJhLfHDioGuFZC0slq-6" target="gRaJhLfHDioGuFZC0slq-8" edge="1">
          <mxGeometry relative="1" as="geometry" />
        </mxCell>
        <mxCell id="gRaJhLfHDioGuFZC0slq-6" value="kezdés" style="ellipse;whiteSpace=wrap;html=1;" parent="1" vertex="1">
          <mxGeometry x="2259" y="370" width="100" height="60" as="geometry" />
        </mxCell>
        <mxCell id="gRaJhLfHDioGuFZC0slq-100" style="rounded=0;orthogonalLoop=1;jettySize=auto;html=1;exitX=0.5;exitY=0;exitDx=0;exitDy=0;entryX=0.5;entryY=1;entryDx=0;entryDy=0;endArrow=none;endFill=0;" parent="1" source="gRaJhLfHDioGuFZC0slq-7" target="gRaJhLfHDioGuFZC0slq-1" edge="1">
          <mxGeometry relative="1" as="geometry" />
        </mxCell>
        <mxCell id="gRaJhLfHDioGuFZC0slq-7" value="megrendelő" style="ellipse;shape=doubleEllipse;whiteSpace=wrap;html=1;" parent="1" vertex="1">
          <mxGeometry x="1870" y="240" width="100" height="60" as="geometry" />
        </mxCell>
        <mxCell id="gRaJhLfHDioGuFZC0slq-101" style="rounded=0;orthogonalLoop=1;jettySize=auto;html=1;exitX=0.5;exitY=0;exitDx=0;exitDy=0;entryX=0.5;entryY=1;entryDx=0;entryDy=0;endArrow=none;endFill=0;" parent="1" source="gRaJhLfHDioGuFZC0slq-8" target="gRaJhLfHDioGuFZC0slq-1" edge="1">
          <mxGeometry relative="1" as="geometry" />
        </mxCell>
        <mxCell id="gRaJhLfHDioGuFZC0slq-8" value="rendezvény" style="ellipse;shape=doubleEllipse;whiteSpace=wrap;html=1;" parent="1" vertex="1">
          <mxGeometry x="2600" y="240" width="100" height="60" as="geometry" />
        </mxCell>
        <mxCell id="gRaJhLfHDioGuFZC0slq-98" style="rounded=0;orthogonalLoop=1;jettySize=auto;html=1;exitX=0.5;exitY=0;exitDx=0;exitDy=0;entryX=0.5;entryY=1;entryDx=0;entryDy=0;endArrow=none;endFill=0;" parent="1" source="gRaJhLfHDioGuFZC0slq-9" target="gRaJhLfHDioGuFZC0slq-1" edge="1">
          <mxGeometry relative="1" as="geometry" />
        </mxCell>
        <mxCell id="gRaJhLfHDioGuFZC0slq-9" value="sütemény" style="ellipse;shape=doubleEllipse;whiteSpace=wrap;html=1;" parent="1" vertex="1">
          <mxGeometry x="1000" y="240" width="100" height="60" as="geometry" />
        </mxCell>
        <mxCell id="gRaJhLfHDioGuFZC0slq-96" style="rounded=0;orthogonalLoop=1;jettySize=auto;html=1;exitX=0.5;exitY=0;exitDx=0;exitDy=0;entryX=0.5;entryY=1;entryDx=0;entryDy=0;endArrow=none;endFill=0;" parent="1" source="gRaJhLfHDioGuFZC0slq-10" target="gRaJhLfHDioGuFZC0slq-1" edge="1">
          <mxGeometry relative="1" as="geometry" />
        </mxCell>
        <mxCell id="gRaJhLfHDioGuFZC0slq-10" value="cukrászda" style="ellipse;shape=doubleEllipse;whiteSpace=wrap;html=1;" parent="1" vertex="1">
          <mxGeometry x="60" y="240" width="100" height="60" as="geometry" />
        </mxCell>
        <mxCell id="gRaJhLfHDioGuFZC0slq-95" style="rounded=0;orthogonalLoop=1;jettySize=auto;html=1;exitX=0.5;exitY=0;exitDx=0;exitDy=0;entryX=0.5;entryY=1;entryDx=0;entryDy=0;endArrow=none;endFill=0;" parent="1" source="gRaJhLfHDioGuFZC0slq-11" target="gRaJhLfHDioGuFZC0slq-1" edge="1">
          <mxGeometry relative="1" as="geometry" />
        </mxCell>
        <mxCell id="gRaJhLfHDioGuFZC0slq-11" value="igazgató" style="ellipse;shape=doubleEllipse;whiteSpace=wrap;html=1;" parent="1" vertex="1">
          <mxGeometry x="-463" y="220" width="100" height="60" as="geometry" />
        </mxCell>
        <mxCell id="gRaJhLfHDioGuFZC0slq-94" style="rounded=0;orthogonalLoop=1;jettySize=auto;html=1;exitX=0.5;exitY=0;exitDx=0;exitDy=0;entryX=0.5;entryY=1;entryDx=0;entryDy=0;endArrow=none;endFill=0;" parent="1" source="gRaJhLfHDioGuFZC0slq-12" target="gRaJhLfHDioGuFZC0slq-1" edge="1">
          <mxGeometry relative="1" as="geometry" />
        </mxCell>
        <mxCell id="gRaJhLfHDioGuFZC0slq-12" value="dolgozó" style="ellipse;shape=doubleEllipse;whiteSpace=wrap;html=1;" parent="1" vertex="1">
          <mxGeometry x="-1090" y="240" width="100" height="60" as="geometry" />
        </mxCell>
        <mxCell id="gRaJhLfHDioGuFZC0slq-99" style="rounded=0;orthogonalLoop=1;jettySize=auto;html=1;exitX=0.5;exitY=0;exitDx=0;exitDy=0;entryX=0.5;entryY=1;entryDx=0;entryDy=0;endArrow=none;endFill=0;" parent="1" source="gRaJhLfHDioGuFZC0slq-13" target="gRaJhLfHDioGuFZC0slq-1" edge="1">
          <mxGeometry relative="1" as="geometry" />
        </mxCell>
        <mxCell id="gRaJhLfHDioGuFZC0slq-13" value="rendel" style="ellipse;shape=doubleEllipse;whiteSpace=wrap;html=1;" parent="1" vertex="1">
          <mxGeometry x="1480" y="240" width="100" height="60" as="geometry" />
        </mxCell>
        <mxCell id="gRaJhLfHDioGuFZC0slq-25" style="rounded=0;orthogonalLoop=1;jettySize=auto;html=1;exitX=0.5;exitY=0;exitDx=0;exitDy=0;entryX=0.5;entryY=1;entryDx=0;entryDy=0;endArrow=none;endFill=0;" parent="1" source="gRaJhLfHDioGuFZC0slq-15" target="gRaJhLfHDioGuFZC0slq-12" edge="1">
          <mxGeometry relative="1" as="geometry" />
        </mxCell>
        <mxCell id="gRaJhLfHDioGuFZC0slq-15" value="&lt;u&gt;DID&lt;/u&gt;" style="rhombus;whiteSpace=wrap;html=1;" parent="1" vertex="1">
          <mxGeometry x="-1340" y="360" width="80" height="80" as="geometry" />
        </mxCell>
        <mxCell id="gRaJhLfHDioGuFZC0slq-27" style="rounded=0;orthogonalLoop=1;jettySize=auto;html=1;exitX=0.5;exitY=0;exitDx=0;exitDy=0;entryX=0.5;entryY=1;entryDx=0;entryDy=0;endArrow=none;endFill=0;" parent="1" source="gRaJhLfHDioGuFZC0slq-16" target="gRaJhLfHDioGuFZC0slq-11" edge="1">
          <mxGeometry relative="1" as="geometry" />
        </mxCell>
        <mxCell id="gRaJhLfHDioGuFZC0slq-51" style="edgeStyle=orthogonalEdgeStyle;rounded=0;orthogonalLoop=1;jettySize=auto;html=1;exitX=0.5;exitY=1;exitDx=0;exitDy=0;entryX=0.393;entryY=0.883;entryDx=0;entryDy=0;entryPerimeter=0;dashed=1;" parent="1" source="gRaJhLfHDioGuFZC0slq-16" target="gRaJhLfHDioGuFZC0slq-17" edge="1">
          <mxGeometry relative="1" as="geometry">
            <Array as="points">
              <mxPoint x="-610" y="920" />
              <mxPoint x="-59" y="920" />
            </Array>
          </mxGeometry>
        </mxCell>
        <mxCell id="gRaJhLfHDioGuFZC0slq-16" value="&lt;u&gt;IID&lt;/u&gt;" style="rhombus;whiteSpace=wrap;html=1;" parent="1" vertex="1">
          <mxGeometry x="-650" y="360" width="80" height="80" as="geometry" />
        </mxCell>
        <mxCell id="gRaJhLfHDioGuFZC0slq-28" style="rounded=0;orthogonalLoop=1;jettySize=auto;html=1;exitX=0.5;exitY=0;exitDx=0;exitDy=0;entryX=0.5;entryY=1;entryDx=0;entryDy=0;endArrow=none;endFill=0;" parent="1" source="gRaJhLfHDioGuFZC0slq-17" target="gRaJhLfHDioGuFZC0slq-10" edge="1">
          <mxGeometry relative="1" as="geometry" />
        </mxCell>
        <mxCell id="gRaJhLfHDioGuFZC0slq-17" value="&lt;u&gt;CID&lt;/u&gt;" style="rhombus;whiteSpace=wrap;html=1;" parent="1" vertex="1">
          <mxGeometry x="-90" y="360" width="80" height="80" as="geometry" />
        </mxCell>
        <mxCell id="gRaJhLfHDioGuFZC0slq-29" style="rounded=0;orthogonalLoop=1;jettySize=auto;html=1;exitX=0.5;exitY=0;exitDx=0;exitDy=0;entryX=0.5;entryY=1;entryDx=0;entryDy=0;endArrow=none;endFill=0;" parent="1" source="gRaJhLfHDioGuFZC0slq-18" target="gRaJhLfHDioGuFZC0slq-9" edge="1">
          <mxGeometry relative="1" as="geometry" />
        </mxCell>
        <mxCell id="gRaJhLfHDioGuFZC0slq-18" value="&lt;u&gt;SID&lt;/u&gt;" style="rhombus;whiteSpace=wrap;html=1;" parent="1" vertex="1">
          <mxGeometry x="810" y="360" width="80" height="80" as="geometry" />
        </mxCell>
        <mxCell id="gRaJhLfHDioGuFZC0slq-30" style="rounded=0;orthogonalLoop=1;jettySize=auto;html=1;exitX=0.5;exitY=0;exitDx=0;exitDy=0;entryX=0.5;entryY=1;entryDx=0;entryDy=0;endArrow=none;endFill=0;" parent="1" source="gRaJhLfHDioGuFZC0slq-19" target="gRaJhLfHDioGuFZC0slq-7" edge="1">
          <mxGeometry relative="1" as="geometry" />
        </mxCell>
        <mxCell id="gRaJhLfHDioGuFZC0slq-19" value="&lt;u&gt;MID&lt;/u&gt;" style="rhombus;whiteSpace=wrap;html=1;" parent="1" vertex="1">
          <mxGeometry x="1780" y="360" width="80" height="80" as="geometry" />
        </mxCell>
        <mxCell id="gRaJhLfHDioGuFZC0slq-31" style="rounded=0;orthogonalLoop=1;jettySize=auto;html=1;exitX=0.5;exitY=0;exitDx=0;exitDy=0;entryX=0.5;entryY=1;entryDx=0;entryDy=0;endArrow=none;endFill=0;" parent="1" source="gRaJhLfHDioGuFZC0slq-20" target="gRaJhLfHDioGuFZC0slq-8" edge="1">
          <mxGeometry relative="1" as="geometry" />
        </mxCell>
        <mxCell id="gRaJhLfHDioGuFZC0slq-20" value="&lt;u&gt;RID&lt;/u&gt;" style="rhombus;whiteSpace=wrap;html=1;" parent="1" vertex="1">
          <mxGeometry x="2160" y="360" width="80" height="80" as="geometry" />
        </mxCell>
        <mxCell id="gRaJhLfHDioGuFZC0slq-22" style="edgeStyle=orthogonalEdgeStyle;rounded=0;orthogonalLoop=1;jettySize=auto;html=1;exitX=0.5;exitY=1;exitDx=0;exitDy=0;entryX=0.5;entryY=1;entryDx=0;entryDy=0;dashed=1;" parent="1" source="gRaJhLfHDioGuFZC0slq-21" target="gRaJhLfHDioGuFZC0slq-17" edge="1">
          <mxGeometry relative="1" as="geometry">
            <Array as="points">
              <mxPoint x="-770" y="1040" />
              <mxPoint x="-50" y="1040" />
            </Array>
          </mxGeometry>
        </mxCell>
        <mxCell id="gRaJhLfHDioGuFZC0slq-26" style="rounded=0;orthogonalLoop=1;jettySize=auto;html=1;exitX=0.5;exitY=0;exitDx=0;exitDy=0;entryX=0.5;entryY=1;entryDx=0;entryDy=0;endArrow=none;endFill=0;" parent="1" source="gRaJhLfHDioGuFZC0slq-21" target="gRaJhLfHDioGuFZC0slq-12" edge="1">
          <mxGeometry relative="1" as="geometry" />
        </mxCell>
        <mxCell id="gRaJhLfHDioGuFZC0slq-21" value="dolgozó_CID" style="rhombus;whiteSpace=wrap;html=1;" parent="1" vertex="1">
          <mxGeometry x="-810" y="360" width="80" height="80" as="geometry" />
        </mxCell>
        <mxCell id="gRaJhLfHDioGuFZC0slq-97" style="rounded=0;orthogonalLoop=1;jettySize=auto;html=1;exitX=0.5;exitY=0;exitDx=0;exitDy=0;entryX=0.5;entryY=1;entryDx=0;entryDy=0;endArrow=none;endFill=0;" parent="1" source="gRaJhLfHDioGuFZC0slq-23" target="gRaJhLfHDioGuFZC0slq-1" edge="1">
          <mxGeometry relative="1" as="geometry" />
        </mxCell>
        <mxCell id="gRaJhLfHDioGuFZC0slq-23" value="árul" style="ellipse;shape=doubleEllipse;whiteSpace=wrap;html=1;" parent="1" vertex="1">
          <mxGeometry x="640" y="250" width="100" height="60" as="geometry" />
        </mxCell>
        <mxCell id="gRaJhLfHDioGuFZC0slq-34" style="rounded=0;orthogonalLoop=1;jettySize=auto;html=1;exitX=0.5;exitY=0;exitDx=0;exitDy=0;entryX=0.5;entryY=1;entryDx=0;entryDy=0;endArrow=none;endFill=0;" parent="1" source="gRaJhLfHDioGuFZC0slq-32" target="gRaJhLfHDioGuFZC0slq-23" edge="1">
          <mxGeometry relative="1" as="geometry" />
        </mxCell>
        <mxCell id="gRaJhLfHDioGuFZC0slq-38" style="edgeStyle=orthogonalEdgeStyle;rounded=0;orthogonalLoop=1;jettySize=auto;html=1;exitX=0.5;exitY=1;exitDx=0;exitDy=0;dashed=1;" parent="1" source="gRaJhLfHDioGuFZC0slq-32" target="gRaJhLfHDioGuFZC0slq-17" edge="1">
          <mxGeometry relative="1" as="geometry">
            <Array as="points">
              <mxPoint x="640" y="920" />
              <mxPoint x="-31" y="920" />
            </Array>
          </mxGeometry>
        </mxCell>
        <mxCell id="gRaJhLfHDioGuFZC0slq-32" value="árul_CID" style="rhombus;whiteSpace=wrap;html=1;" parent="1" vertex="1">
          <mxGeometry x="600" y="360" width="80" height="80" as="geometry" />
        </mxCell>
        <mxCell id="gRaJhLfHDioGuFZC0slq-35" style="rounded=0;orthogonalLoop=1;jettySize=auto;html=1;exitX=0.5;exitY=0;exitDx=0;exitDy=0;endArrow=none;endFill=0;entryX=0.5;entryY=1;entryDx=0;entryDy=0;" parent="1" source="gRaJhLfHDioGuFZC0slq-33" target="gRaJhLfHDioGuFZC0slq-23" edge="1">
          <mxGeometry relative="1" as="geometry" />
        </mxCell>
        <mxCell id="gRaJhLfHDioGuFZC0slq-37" style="edgeStyle=orthogonalEdgeStyle;rounded=0;orthogonalLoop=1;jettySize=auto;html=1;exitX=0.5;exitY=1;exitDx=0;exitDy=0;entryX=0.5;entryY=1;entryDx=0;entryDy=0;dashed=1;" parent="1" source="gRaJhLfHDioGuFZC0slq-33" target="gRaJhLfHDioGuFZC0slq-18" edge="1">
          <mxGeometry relative="1" as="geometry">
            <Array as="points">
              <mxPoint x="740" y="920" />
              <mxPoint x="850" y="920" />
            </Array>
          </mxGeometry>
        </mxCell>
        <mxCell id="gRaJhLfHDioGuFZC0slq-33" value="árul_SID" style="rhombus;whiteSpace=wrap;html=1;" parent="1" vertex="1">
          <mxGeometry x="700" y="360" width="80" height="80" as="geometry" />
        </mxCell>
        <mxCell id="gRaJhLfHDioGuFZC0slq-41" style="rounded=0;orthogonalLoop=1;jettySize=auto;html=1;exitX=0.5;exitY=0;exitDx=0;exitDy=0;entryX=0.5;entryY=1;entryDx=0;entryDy=0;endArrow=none;endFill=0;" parent="1" source="gRaJhLfHDioGuFZC0slq-39" target="gRaJhLfHDioGuFZC0slq-13" edge="1">
          <mxGeometry relative="1" as="geometry" />
        </mxCell>
        <mxCell id="gRaJhLfHDioGuFZC0slq-43" style="edgeStyle=orthogonalEdgeStyle;rounded=0;orthogonalLoop=1;jettySize=auto;html=1;exitX=0.5;exitY=1;exitDx=0;exitDy=0;dashed=1;" parent="1" source="gRaJhLfHDioGuFZC0slq-39" target="gRaJhLfHDioGuFZC0slq-18" edge="1">
          <mxGeometry relative="1" as="geometry">
            <Array as="points">
              <mxPoint x="1350" y="920" />
              <mxPoint x="860" y="920" />
            </Array>
          </mxGeometry>
        </mxCell>
        <mxCell id="gRaJhLfHDioGuFZC0slq-39" value="rendel_SID" style="rhombus;whiteSpace=wrap;html=1;" parent="1" vertex="1">
          <mxGeometry x="1310" y="360" width="80" height="80" as="geometry" />
        </mxCell>
        <mxCell id="gRaJhLfHDioGuFZC0slq-42" style="rounded=0;orthogonalLoop=1;jettySize=auto;html=1;exitX=0.5;exitY=0;exitDx=0;exitDy=0;endArrow=none;endFill=0;entryX=0.5;entryY=1;entryDx=0;entryDy=0;" parent="1" source="gRaJhLfHDioGuFZC0slq-40" target="gRaJhLfHDioGuFZC0slq-13" edge="1">
          <mxGeometry relative="1" as="geometry">
            <mxPoint x="1180" y="320" as="targetPoint" />
          </mxGeometry>
        </mxCell>
        <mxCell id="gRaJhLfHDioGuFZC0slq-44" style="edgeStyle=orthogonalEdgeStyle;rounded=0;orthogonalLoop=1;jettySize=auto;html=1;exitX=0.5;exitY=1;exitDx=0;exitDy=0;entryX=0.5;entryY=1;entryDx=0;entryDy=0;dashed=1;" parent="1" source="gRaJhLfHDioGuFZC0slq-40" target="gRaJhLfHDioGuFZC0slq-19" edge="1">
          <mxGeometry relative="1" as="geometry">
            <Array as="points">
              <mxPoint x="1715" y="920" />
              <mxPoint x="1820" y="920" />
            </Array>
          </mxGeometry>
        </mxCell>
        <mxCell id="gRaJhLfHDioGuFZC0slq-40" value="rendel_MID" style="rhombus;whiteSpace=wrap;html=1;" parent="1" vertex="1">
          <mxGeometry x="1675" y="360" width="80" height="80" as="geometry" />
        </mxCell>
        <mxCell id="gRaJhLfHDioGuFZC0slq-46" style="rounded=0;orthogonalLoop=1;jettySize=auto;html=1;exitX=0.5;exitY=0;exitDx=0;exitDy=0;entryX=0.5;entryY=1;entryDx=0;entryDy=0;endArrow=none;endFill=0;" parent="1" source="gRaJhLfHDioGuFZC0slq-45" target="gRaJhLfHDioGuFZC0slq-8" edge="1">
          <mxGeometry relative="1" as="geometry" />
        </mxCell>
        <mxCell id="gRaJhLfHDioGuFZC0slq-47" style="edgeStyle=orthogonalEdgeStyle;rounded=0;orthogonalLoop=1;jettySize=auto;html=1;exitX=0.5;exitY=1;exitDx=0;exitDy=0;dashed=1;" parent="1" source="gRaJhLfHDioGuFZC0slq-45" target="gRaJhLfHDioGuFZC0slq-19" edge="1">
          <mxGeometry relative="1" as="geometry">
            <Array as="points">
              <mxPoint x="2840" y="920" />
              <mxPoint x="1833" y="920" />
            </Array>
          </mxGeometry>
        </mxCell>
        <mxCell id="gRaJhLfHDioGuFZC0slq-45" value="rendezveny:MID" style="rhombus;whiteSpace=wrap;html=1;" parent="1" vertex="1">
          <mxGeometry x="2800" y="360" width="80" height="80" as="geometry" />
        </mxCell>
        <mxCell id="gRaJhLfHDioGuFZC0slq-49" style="rounded=0;orthogonalLoop=1;jettySize=auto;html=1;exitX=0.5;exitY=0;exitDx=0;exitDy=0;entryX=0.5;entryY=1;entryDx=0;entryDy=0;endArrow=none;endFill=0;" parent="1" source="gRaJhLfHDioGuFZC0slq-48" target="gRaJhLfHDioGuFZC0slq-8" edge="1">
          <mxGeometry relative="1" as="geometry" />
        </mxCell>
        <mxCell id="gRaJhLfHDioGuFZC0slq-50" style="edgeStyle=orthogonalEdgeStyle;rounded=0;orthogonalLoop=1;jettySize=auto;html=1;exitX=0.5;exitY=1;exitDx=0;exitDy=0;entryX=0.625;entryY=0.875;entryDx=0;entryDy=0;entryPerimeter=0;dashed=1;" parent="1" source="gRaJhLfHDioGuFZC0slq-48" target="gRaJhLfHDioGuFZC0slq-17" edge="1">
          <mxGeometry relative="1" as="geometry">
            <Array as="points">
              <mxPoint x="2940" y="1040" />
              <mxPoint x="-40" y="1040" />
            </Array>
          </mxGeometry>
        </mxCell>
        <mxCell id="gRaJhLfHDioGuFZC0slq-48" value="rendezveny_CID" style="rhombus;whiteSpace=wrap;html=1;" parent="1" vertex="1">
          <mxGeometry x="2900" y="360" width="80" height="80" as="geometry" />
        </mxCell>
        <mxCell id="gRaJhLfHDioGuFZC0slq-61" style="rounded=0;orthogonalLoop=1;jettySize=auto;html=1;exitX=0.5;exitY=0;exitDx=0;exitDy=0;endArrow=none;endFill=0;entryX=0.5;entryY=1;entryDx=0;entryDy=0;" parent="1" source="gRaJhLfHDioGuFZC0slq-54" target="gRaJhLfHDioGuFZC0slq-5" edge="1">
          <mxGeometry relative="1" as="geometry">
            <mxPoint x="2620" y="415" as="targetPoint" />
          </mxGeometry>
        </mxCell>
        <mxCell id="gRaJhLfHDioGuFZC0slq-54" value="házszám" style="ellipse;whiteSpace=wrap;html=1;" parent="1" vertex="1">
          <mxGeometry x="2733" y="502" width="100" height="60" as="geometry" />
        </mxCell>
        <mxCell id="gRaJhLfHDioGuFZC0slq-60" style="rounded=0;orthogonalLoop=1;jettySize=auto;html=1;exitX=0.5;exitY=0;exitDx=0;exitDy=0;endArrow=none;endFill=0;entryX=0.5;entryY=1;entryDx=0;entryDy=0;" parent="1" source="gRaJhLfHDioGuFZC0slq-55" target="gRaJhLfHDioGuFZC0slq-5" edge="1">
          <mxGeometry relative="1" as="geometry">
            <mxPoint x="2620" y="415" as="targetPoint" />
          </mxGeometry>
        </mxCell>
        <mxCell id="gRaJhLfHDioGuFZC0slq-55" value="utca" style="ellipse;whiteSpace=wrap;html=1;" parent="1" vertex="1">
          <mxGeometry x="2611" y="502" width="100" height="60" as="geometry" />
        </mxCell>
        <mxCell id="gRaJhLfHDioGuFZC0slq-59" style="rounded=0;orthogonalLoop=1;jettySize=auto;html=1;exitX=0.5;exitY=0;exitDx=0;exitDy=0;endArrow=none;endFill=0;entryX=0.5;entryY=1;entryDx=0;entryDy=0;" parent="1" source="gRaJhLfHDioGuFZC0slq-56" target="gRaJhLfHDioGuFZC0slq-5" edge="1">
          <mxGeometry relative="1" as="geometry">
            <mxPoint x="2620" y="415" as="targetPoint" />
          </mxGeometry>
        </mxCell>
        <mxCell id="gRaJhLfHDioGuFZC0slq-56" value="irányítószám" style="ellipse;whiteSpace=wrap;html=1;" parent="1" vertex="1">
          <mxGeometry x="2483" y="502" width="100" height="60" as="geometry" />
        </mxCell>
        <mxCell id="gRaJhLfHDioGuFZC0slq-58" style="rounded=0;orthogonalLoop=1;jettySize=auto;html=1;exitX=0.5;exitY=0;exitDx=0;exitDy=0;entryX=0.5;entryY=1;entryDx=0;entryDy=0;endArrow=none;endFill=0;" parent="1" source="gRaJhLfHDioGuFZC0slq-57" target="gRaJhLfHDioGuFZC0slq-5" edge="1">
          <mxGeometry relative="1" as="geometry" />
        </mxCell>
        <mxCell id="gRaJhLfHDioGuFZC0slq-57" value="város" style="ellipse;whiteSpace=wrap;html=1;" parent="1" vertex="1">
          <mxGeometry x="2359" y="502" width="100" height="60" as="geometry" />
        </mxCell>
        <mxCell id="gRaJhLfHDioGuFZC0slq-64" style="rounded=0;orthogonalLoop=1;jettySize=auto;html=1;exitX=0.5;exitY=0;exitDx=0;exitDy=0;entryX=0.5;entryY=1;entryDx=0;entryDy=0;endArrow=none;endFill=0;" parent="1" source="gRaJhLfHDioGuFZC0slq-62" target="gRaJhLfHDioGuFZC0slq-7" edge="1">
          <mxGeometry relative="1" as="geometry" />
        </mxCell>
        <mxCell id="gRaJhLfHDioGuFZC0slq-62" value="elérhetőség" style="ellipse;shape=doubleEllipse;whiteSpace=wrap;html=1;" parent="1" vertex="1">
          <mxGeometry x="2040" y="370" width="100" height="60" as="geometry" />
        </mxCell>
        <mxCell id="gRaJhLfHDioGuFZC0slq-69" style="rounded=0;orthogonalLoop=1;jettySize=auto;html=1;exitX=0.5;exitY=0;exitDx=0;exitDy=0;entryX=0.5;entryY=1;entryDx=0;entryDy=0;endArrow=none;endFill=0;" parent="1" source="gRaJhLfHDioGuFZC0slq-65" target="gRaJhLfHDioGuFZC0slq-9" edge="1">
          <mxGeometry relative="1" as="geometry" />
        </mxCell>
        <mxCell id="gRaJhLfHDioGuFZC0slq-65" value="név" style="ellipse;whiteSpace=wrap;html=1;" parent="1" vertex="1">
          <mxGeometry x="920" y="370" width="100" height="60" as="geometry" />
        </mxCell>
        <mxCell id="gRaJhLfHDioGuFZC0slq-70" style="rounded=0;orthogonalLoop=1;jettySize=auto;html=1;exitX=0.5;exitY=0;exitDx=0;exitDy=0;endArrow=none;endFill=0;entryX=0.5;entryY=1;entryDx=0;entryDy=0;" parent="1" source="gRaJhLfHDioGuFZC0slq-66" target="gRaJhLfHDioGuFZC0slq-9" edge="1">
          <mxGeometry relative="1" as="geometry">
            <mxPoint x="1060" y="340" as="targetPoint" />
          </mxGeometry>
        </mxCell>
        <mxCell id="gRaJhLfHDioGuFZC0slq-66" value="egységár" style="ellipse;whiteSpace=wrap;html=1;" parent="1" vertex="1">
          <mxGeometry x="1060" y="370" width="100" height="60" as="geometry" />
        </mxCell>
        <mxCell id="gRaJhLfHDioGuFZC0slq-77" style="rounded=0;orthogonalLoop=1;jettySize=auto;html=1;exitX=0.5;exitY=0;exitDx=0;exitDy=0;entryX=0.5;entryY=1;entryDx=0;entryDy=0;endArrow=none;endFill=0;" parent="1" source="gRaJhLfHDioGuFZC0slq-67" target="gRaJhLfHDioGuFZC0slq-3" edge="1">
          <mxGeometry relative="1" as="geometry" />
        </mxCell>
        <mxCell id="gRaJhLfHDioGuFZC0slq-67" value="irányítószám" style="ellipse;whiteSpace=wrap;html=1;" parent="1" vertex="1">
          <mxGeometry x="280" y="502" width="100" height="60" as="geometry" />
        </mxCell>
        <mxCell id="gRaJhLfHDioGuFZC0slq-71" style="rounded=0;orthogonalLoop=1;jettySize=auto;html=1;exitX=0.5;exitY=0;exitDx=0;exitDy=0;entryX=0.5;entryY=1;entryDx=0;entryDy=0;endArrow=none;endFill=0;" parent="1" source="gRaJhLfHDioGuFZC0slq-68" target="gRaJhLfHDioGuFZC0slq-9" edge="1">
          <mxGeometry relative="1" as="geometry" />
        </mxCell>
        <mxCell id="gRaJhLfHDioGuFZC0slq-68" value="allergének" style="ellipse;shape=doubleEllipse;whiteSpace=wrap;html=1;" parent="1" vertex="1">
          <mxGeometry x="1191" y="370" width="100" height="60" as="geometry" />
        </mxCell>
        <mxCell id="gRaJhLfHDioGuFZC0slq-76" style="rounded=0;orthogonalLoop=1;jettySize=auto;html=1;exitX=0.5;exitY=0;exitDx=0;exitDy=0;entryX=0.5;entryY=1;entryDx=0;entryDy=0;endArrow=none;endFill=0;" parent="1" source="gRaJhLfHDioGuFZC0slq-73" target="gRaJhLfHDioGuFZC0slq-3" edge="1">
          <mxGeometry relative="1" as="geometry" />
        </mxCell>
        <mxCell id="gRaJhLfHDioGuFZC0slq-73" value="város" style="ellipse;whiteSpace=wrap;html=1;" parent="1" vertex="1">
          <mxGeometry x="160" y="502" width="100" height="60" as="geometry" />
        </mxCell>
        <mxCell id="gRaJhLfHDioGuFZC0slq-78" style="rounded=0;orthogonalLoop=1;jettySize=auto;html=1;exitX=0.5;exitY=0;exitDx=0;exitDy=0;entryX=0.5;entryY=1;entryDx=0;entryDy=0;endArrow=none;endFill=0;" parent="1" source="gRaJhLfHDioGuFZC0slq-74" target="gRaJhLfHDioGuFZC0slq-3" edge="1">
          <mxGeometry relative="1" as="geometry" />
        </mxCell>
        <mxCell id="gRaJhLfHDioGuFZC0slq-74" value="utca" style="ellipse;whiteSpace=wrap;html=1;" parent="1" vertex="1">
          <mxGeometry x="404" y="502" width="100" height="60" as="geometry" />
        </mxCell>
        <mxCell id="gRaJhLfHDioGuFZC0slq-79" style="rounded=0;orthogonalLoop=1;jettySize=auto;html=1;exitX=0.5;exitY=0;exitDx=0;exitDy=0;entryX=0.5;entryY=1;entryDx=0;entryDy=0;endArrow=none;endFill=0;" parent="1" source="gRaJhLfHDioGuFZC0slq-75" target="gRaJhLfHDioGuFZC0slq-3" edge="1">
          <mxGeometry relative="1" as="geometry" />
        </mxCell>
        <mxCell id="gRaJhLfHDioGuFZC0slq-75" value="házszám" style="ellipse;whiteSpace=wrap;html=1;" parent="1" vertex="1">
          <mxGeometry x="530" y="502" width="100" height="60" as="geometry" />
        </mxCell>
        <mxCell id="gRaJhLfHDioGuFZC0slq-85" style="rounded=0;orthogonalLoop=1;jettySize=auto;html=1;exitX=0.5;exitY=0;exitDx=0;exitDy=0;entryX=0.5;entryY=1;entryDx=0;entryDy=0;endArrow=none;endFill=0;" parent="1" source="gRaJhLfHDioGuFZC0slq-82" target="gRaJhLfHDioGuFZC0slq-11" edge="1">
          <mxGeometry relative="1" as="geometry" />
        </mxCell>
        <mxCell id="gRaJhLfHDioGuFZC0slq-82" value="név" style="ellipse;whiteSpace=wrap;html=1;" parent="1" vertex="1">
          <mxGeometry x="-520" y="370" width="100" height="60" as="geometry" />
        </mxCell>
        <mxCell id="gRaJhLfHDioGuFZC0slq-86" style="rounded=0;orthogonalLoop=1;jettySize=auto;html=1;exitX=0.5;exitY=0;exitDx=0;exitDy=0;entryX=0.5;entryY=1;entryDx=0;entryDy=0;endArrow=none;endFill=0;" parent="1" source="gRaJhLfHDioGuFZC0slq-83" target="gRaJhLfHDioGuFZC0slq-11" edge="1">
          <mxGeometry relative="1" as="geometry">
            <mxPoint x="-350" y="310" as="targetPoint" />
          </mxGeometry>
        </mxCell>
        <mxCell id="gRaJhLfHDioGuFZC0slq-83" value="fizetés" style="ellipse;whiteSpace=wrap;html=1;" parent="1" vertex="1">
          <mxGeometry x="-380" y="370" width="100" height="60" as="geometry" />
        </mxCell>
        <mxCell id="gRaJhLfHDioGuFZC0slq-87" style="rounded=0;orthogonalLoop=1;jettySize=auto;html=1;exitX=0.5;exitY=0;exitDx=0;exitDy=0;entryX=0.5;entryY=1;entryDx=0;entryDy=0;endArrow=none;endFill=0;" parent="1" source="gRaJhLfHDioGuFZC0slq-84" target="gRaJhLfHDioGuFZC0slq-11" edge="1">
          <mxGeometry relative="1" as="geometry" />
        </mxCell>
        <mxCell id="gRaJhLfHDioGuFZC0slq-84" value="elérhetőség" style="ellipse;shape=doubleEllipse;whiteSpace=wrap;html=1;" parent="1" vertex="1">
          <mxGeometry x="-230" y="370" width="100" height="60" as="geometry" />
        </mxCell>
        <mxCell id="gRaJhLfHDioGuFZC0slq-91" style="rounded=0;orthogonalLoop=1;jettySize=auto;html=1;exitX=0.5;exitY=0;exitDx=0;exitDy=0;entryX=0.5;entryY=1;entryDx=0;entryDy=0;endArrow=none;endFill=0;" parent="1" source="gRaJhLfHDioGuFZC0slq-88" target="gRaJhLfHDioGuFZC0slq-12" edge="1">
          <mxGeometry relative="1" as="geometry" />
        </mxCell>
        <mxCell id="gRaJhLfHDioGuFZC0slq-88" value="név" style="ellipse;whiteSpace=wrap;html=1;" parent="1" vertex="1">
          <mxGeometry x="-1220" y="370" width="100" height="60" as="geometry" />
        </mxCell>
        <mxCell id="gRaJhLfHDioGuFZC0slq-92" style="rounded=0;orthogonalLoop=1;jettySize=auto;html=1;exitX=0.5;exitY=0;exitDx=0;exitDy=0;entryX=0.5;entryY=1;entryDx=0;entryDy=0;endArrow=none;endFill=0;" parent="1" source="gRaJhLfHDioGuFZC0slq-89" target="gRaJhLfHDioGuFZC0slq-12" edge="1">
          <mxGeometry relative="1" as="geometry" />
        </mxCell>
        <mxCell id="gRaJhLfHDioGuFZC0slq-89" value="fizetés" style="ellipse;whiteSpace=wrap;html=1;" parent="1" vertex="1">
          <mxGeometry x="-1090" y="370" width="100" height="60" as="geometry" />
        </mxCell>
        <mxCell id="gRaJhLfHDioGuFZC0slq-93" style="rounded=0;orthogonalLoop=1;jettySize=auto;html=1;exitX=0.5;exitY=0;exitDx=0;exitDy=0;entryX=0.5;entryY=1;entryDx=0;entryDy=0;endArrow=none;endFill=0;" parent="1" source="gRaJhLfHDioGuFZC0slq-90" target="gRaJhLfHDioGuFZC0slq-12" edge="1">
          <mxGeometry relative="1" as="geometry" />
        </mxCell>
        <mxCell id="gRaJhLfHDioGuFZC0slq-90" value="beosztás" style="ellipse;whiteSpace=wrap;html=1;" parent="1" vertex="1">
          <mxGeometry x="-950" y="370" width="100" height="60" as="geometry" />
        </mxCell>
        <mxCell id="gRaJhLfHDioGuFZC0slq-107" style="edgeStyle=orthogonalEdgeStyle;rounded=0;orthogonalLoop=1;jettySize=auto;html=1;exitX=0.5;exitY=0;exitDx=0;exitDy=0;entryX=0.5;entryY=1;entryDx=0;entryDy=0;endArrow=none;endFill=0;" parent="1" source="gRaJhLfHDioGuFZC0slq-102" target="gRaJhLfHDioGuFZC0slq-57" edge="1">
          <mxGeometry relative="1" as="geometry" />
        </mxCell>
        <mxCell id="gRaJhLfHDioGuFZC0slq-102" value="" style="rounded=0;whiteSpace=wrap;html=1;" parent="1" vertex="1">
          <mxGeometry x="2393" y="607" width="32" height="60" as="geometry" />
        </mxCell>
        <mxCell id="gRaJhLfHDioGuFZC0slq-108" style="edgeStyle=orthogonalEdgeStyle;rounded=0;orthogonalLoop=1;jettySize=auto;html=1;exitX=0.5;exitY=0;exitDx=0;exitDy=0;entryX=0.5;entryY=1;entryDx=0;entryDy=0;endArrow=none;endFill=0;" parent="1" source="gRaJhLfHDioGuFZC0slq-103" target="gRaJhLfHDioGuFZC0slq-56" edge="1">
          <mxGeometry relative="1" as="geometry" />
        </mxCell>
        <mxCell id="gRaJhLfHDioGuFZC0slq-103" value="" style="rounded=0;whiteSpace=wrap;html=1;" parent="1" vertex="1">
          <mxGeometry x="2517" y="607" width="32" height="60" as="geometry" />
        </mxCell>
        <mxCell id="gRaJhLfHDioGuFZC0slq-109" style="edgeStyle=orthogonalEdgeStyle;rounded=0;orthogonalLoop=1;jettySize=auto;html=1;exitX=0.5;exitY=0;exitDx=0;exitDy=0;entryX=0.5;entryY=1;entryDx=0;entryDy=0;endArrow=none;endFill=0;" parent="1" source="gRaJhLfHDioGuFZC0slq-104" target="gRaJhLfHDioGuFZC0slq-55" edge="1">
          <mxGeometry relative="1" as="geometry" />
        </mxCell>
        <mxCell id="gRaJhLfHDioGuFZC0slq-104" value="" style="rounded=0;whiteSpace=wrap;html=1;" parent="1" vertex="1">
          <mxGeometry x="2645" y="607" width="32" height="60" as="geometry" />
        </mxCell>
        <mxCell id="gRaJhLfHDioGuFZC0slq-110" style="edgeStyle=orthogonalEdgeStyle;rounded=0;orthogonalLoop=1;jettySize=auto;html=1;exitX=0.5;exitY=0;exitDx=0;exitDy=0;entryX=0.5;entryY=1;entryDx=0;entryDy=0;endArrow=none;endFill=0;" parent="1" source="gRaJhLfHDioGuFZC0slq-105" target="gRaJhLfHDioGuFZC0slq-54" edge="1">
          <mxGeometry relative="1" as="geometry" />
        </mxCell>
        <mxCell id="gRaJhLfHDioGuFZC0slq-105" value="" style="rounded=0;whiteSpace=wrap;html=1;" parent="1" vertex="1">
          <mxGeometry x="2767" y="607" width="32" height="60" as="geometry" />
        </mxCell>
        <mxCell id="gRaJhLfHDioGuFZC0slq-112" style="edgeStyle=orthogonalEdgeStyle;rounded=0;orthogonalLoop=1;jettySize=auto;html=1;exitX=0.5;exitY=0;exitDx=0;exitDy=0;entryX=0.5;entryY=1;entryDx=0;entryDy=0;endArrow=none;endFill=0;" parent="1" source="gRaJhLfHDioGuFZC0slq-111" target="gRaJhLfHDioGuFZC0slq-6" edge="1">
          <mxGeometry relative="1" as="geometry" />
        </mxCell>
        <mxCell id="gRaJhLfHDioGuFZC0slq-111" value="" style="rounded=0;whiteSpace=wrap;html=1;" parent="1" vertex="1">
          <mxGeometry x="2293" y="502" width="32" height="60" as="geometry" />
        </mxCell>
        <mxCell id="gRaJhLfHDioGuFZC0slq-116" style="edgeStyle=orthogonalEdgeStyle;rounded=0;orthogonalLoop=1;jettySize=auto;html=1;exitX=0.5;exitY=0;exitDx=0;exitDy=0;entryX=0.5;entryY=1;entryDx=0;entryDy=0;endArrow=none;endFill=0;" parent="1" source="gRaJhLfHDioGuFZC0slq-113" target="gRaJhLfHDioGuFZC0slq-4" edge="1">
          <mxGeometry relative="1" as="geometry" />
        </mxCell>
        <mxCell id="gRaJhLfHDioGuFZC0slq-113" value="" style="rounded=0;whiteSpace=wrap;html=1;" parent="1" vertex="1">
          <mxGeometry x="1914" y="502" width="32" height="60" as="geometry" />
        </mxCell>
        <mxCell id="gRaJhLfHDioGuFZC0slq-115" style="edgeStyle=orthogonalEdgeStyle;rounded=0;orthogonalLoop=1;jettySize=auto;html=1;exitX=0.5;exitY=0;exitDx=0;exitDy=0;entryX=0.5;entryY=1;entryDx=0;entryDy=0;endArrow=none;endFill=0;" parent="1" source="gRaJhLfHDioGuFZC0slq-114" target="gRaJhLfHDioGuFZC0slq-62" edge="1">
          <mxGeometry relative="1" as="geometry" />
        </mxCell>
        <mxCell id="gRaJhLfHDioGuFZC0slq-114" value="" style="rounded=0;whiteSpace=wrap;html=1;" parent="1" vertex="1">
          <mxGeometry x="2074" y="502" width="32" height="60" as="geometry" />
        </mxCell>
        <mxCell id="gRaJhLfHDioGuFZC0slq-122" style="edgeStyle=orthogonalEdgeStyle;rounded=0;orthogonalLoop=1;jettySize=auto;html=1;exitX=0.5;exitY=0;exitDx=0;exitDy=0;entryX=0.5;entryY=1;entryDx=0;entryDy=0;endArrow=none;endFill=0;" parent="1" source="gRaJhLfHDioGuFZC0slq-117" target="gRaJhLfHDioGuFZC0slq-68" edge="1">
          <mxGeometry relative="1" as="geometry" />
        </mxCell>
        <mxCell id="gRaJhLfHDioGuFZC0slq-117" value="" style="rounded=0;whiteSpace=wrap;html=1;" parent="1" vertex="1">
          <mxGeometry x="1225" y="502" width="32" height="60" as="geometry" />
        </mxCell>
        <mxCell id="gRaJhLfHDioGuFZC0slq-123" style="edgeStyle=orthogonalEdgeStyle;rounded=0;orthogonalLoop=1;jettySize=auto;html=1;exitX=0.5;exitY=0;exitDx=0;exitDy=0;entryX=0.5;entryY=1;entryDx=0;entryDy=0;endArrow=none;endFill=0;" parent="1" source="gRaJhLfHDioGuFZC0slq-118" target="gRaJhLfHDioGuFZC0slq-66" edge="1">
          <mxGeometry relative="1" as="geometry" />
        </mxCell>
        <mxCell id="gRaJhLfHDioGuFZC0slq-118" value="" style="rounded=0;whiteSpace=wrap;html=1;" parent="1" vertex="1">
          <mxGeometry x="1094" y="502" width="32" height="60" as="geometry" />
        </mxCell>
        <mxCell id="gRaJhLfHDioGuFZC0slq-124" style="edgeStyle=orthogonalEdgeStyle;rounded=0;orthogonalLoop=1;jettySize=auto;html=1;exitX=0.5;exitY=0;exitDx=0;exitDy=0;entryX=0.5;entryY=1;entryDx=0;entryDy=0;endArrow=none;endFill=0;" parent="1" source="gRaJhLfHDioGuFZC0slq-119" target="gRaJhLfHDioGuFZC0slq-65" edge="1">
          <mxGeometry relative="1" as="geometry" />
        </mxCell>
        <mxCell id="gRaJhLfHDioGuFZC0slq-119" value="" style="rounded=0;whiteSpace=wrap;html=1;" parent="1" vertex="1">
          <mxGeometry x="954" y="502" width="32" height="60" as="geometry" />
        </mxCell>
        <mxCell id="gRaJhLfHDioGuFZC0slq-132" style="edgeStyle=orthogonalEdgeStyle;rounded=0;orthogonalLoop=1;jettySize=auto;html=1;exitX=0.5;exitY=0;exitDx=0;exitDy=0;entryX=0.5;entryY=1;entryDx=0;entryDy=0;endArrow=none;endFill=0;" parent="1" source="gRaJhLfHDioGuFZC0slq-125" target="gRaJhLfHDioGuFZC0slq-73" edge="1">
          <mxGeometry relative="1" as="geometry" />
        </mxCell>
        <mxCell id="gRaJhLfHDioGuFZC0slq-125" value="" style="rounded=0;whiteSpace=wrap;html=1;" parent="1" vertex="1">
          <mxGeometry x="194" y="607" width="32" height="60" as="geometry" />
        </mxCell>
        <mxCell id="gRaJhLfHDioGuFZC0slq-133" style="edgeStyle=orthogonalEdgeStyle;rounded=0;orthogonalLoop=1;jettySize=auto;html=1;exitX=0.5;exitY=0;exitDx=0;exitDy=0;entryX=0.5;entryY=1;entryDx=0;entryDy=0;endArrow=none;endFill=0;" parent="1" source="gRaJhLfHDioGuFZC0slq-126" target="gRaJhLfHDioGuFZC0slq-67" edge="1">
          <mxGeometry relative="1" as="geometry" />
        </mxCell>
        <mxCell id="gRaJhLfHDioGuFZC0slq-126" value="" style="rounded=0;whiteSpace=wrap;html=1;" parent="1" vertex="1">
          <mxGeometry x="314" y="607" width="32" height="60" as="geometry" />
        </mxCell>
        <mxCell id="gRaJhLfHDioGuFZC0slq-134" style="edgeStyle=orthogonalEdgeStyle;rounded=0;orthogonalLoop=1;jettySize=auto;html=1;exitX=0.5;exitY=0;exitDx=0;exitDy=0;entryX=0.5;entryY=1;entryDx=0;entryDy=0;endArrow=none;endFill=0;" parent="1" source="gRaJhLfHDioGuFZC0slq-127" target="gRaJhLfHDioGuFZC0slq-74" edge="1">
          <mxGeometry relative="1" as="geometry" />
        </mxCell>
        <mxCell id="gRaJhLfHDioGuFZC0slq-127" value="" style="rounded=0;whiteSpace=wrap;html=1;" parent="1" vertex="1">
          <mxGeometry x="438" y="607" width="32" height="60" as="geometry" />
        </mxCell>
        <mxCell id="gRaJhLfHDioGuFZC0slq-135" style="edgeStyle=orthogonalEdgeStyle;rounded=0;orthogonalLoop=1;jettySize=auto;html=1;exitX=0.5;exitY=0;exitDx=0;exitDy=0;entryX=0.5;entryY=1;entryDx=0;entryDy=0;endArrow=none;endFill=0;" parent="1" source="gRaJhLfHDioGuFZC0slq-128" target="gRaJhLfHDioGuFZC0slq-75" edge="1">
          <mxGeometry relative="1" as="geometry" />
        </mxCell>
        <mxCell id="gRaJhLfHDioGuFZC0slq-128" value="" style="rounded=0;whiteSpace=wrap;html=1;" parent="1" vertex="1">
          <mxGeometry x="564" y="607" width="32" height="60" as="geometry" />
        </mxCell>
        <mxCell id="gRaJhLfHDioGuFZC0slq-131" style="edgeStyle=orthogonalEdgeStyle;rounded=0;orthogonalLoop=1;jettySize=auto;html=1;exitX=0.5;exitY=0;exitDx=0;exitDy=0;entryX=0.5;entryY=1;entryDx=0;entryDy=0;endArrow=none;endFill=0;" parent="1" source="gRaJhLfHDioGuFZC0slq-130" target="gRaJhLfHDioGuFZC0slq-2" edge="1">
          <mxGeometry relative="1" as="geometry" />
        </mxCell>
        <mxCell id="gRaJhLfHDioGuFZC0slq-130" value="" style="rounded=0;whiteSpace=wrap;html=1;" parent="1" vertex="1">
          <mxGeometry x="94" y="502" width="32" height="60" as="geometry" />
        </mxCell>
        <mxCell id="gRaJhLfHDioGuFZC0slq-145" style="edgeStyle=orthogonalEdgeStyle;rounded=0;orthogonalLoop=1;jettySize=auto;html=1;exitX=0.5;exitY=0;exitDx=0;exitDy=0;entryX=0.5;entryY=1;entryDx=0;entryDy=0;endArrow=none;endFill=0;" parent="1" source="gRaJhLfHDioGuFZC0slq-136" target="gRaJhLfHDioGuFZC0slq-90" edge="1">
          <mxGeometry relative="1" as="geometry" />
        </mxCell>
        <mxCell id="gRaJhLfHDioGuFZC0slq-136" value="" style="rounded=0;whiteSpace=wrap;html=1;" parent="1" vertex="1">
          <mxGeometry x="-916" y="502" width="32" height="60" as="geometry" />
        </mxCell>
        <mxCell id="gRaJhLfHDioGuFZC0slq-142" style="edgeStyle=orthogonalEdgeStyle;rounded=0;orthogonalLoop=1;jettySize=auto;html=1;exitX=0.5;exitY=0;exitDx=0;exitDy=0;endArrow=none;endFill=0;" parent="1" source="gRaJhLfHDioGuFZC0slq-137" target="gRaJhLfHDioGuFZC0slq-82" edge="1">
          <mxGeometry relative="1" as="geometry" />
        </mxCell>
        <mxCell id="gRaJhLfHDioGuFZC0slq-137" value="" style="rounded=0;whiteSpace=wrap;html=1;" parent="1" vertex="1">
          <mxGeometry x="-486" y="502" width="32" height="60" as="geometry" />
        </mxCell>
        <mxCell id="gRaJhLfHDioGuFZC0slq-141" style="edgeStyle=orthogonalEdgeStyle;rounded=0;orthogonalLoop=1;jettySize=auto;html=1;exitX=0.5;exitY=0;exitDx=0;exitDy=0;entryX=0.5;entryY=1;entryDx=0;entryDy=0;endArrow=none;endFill=0;" parent="1" source="gRaJhLfHDioGuFZC0slq-138" target="gRaJhLfHDioGuFZC0slq-83" edge="1">
          <mxGeometry relative="1" as="geometry" />
        </mxCell>
        <mxCell id="gRaJhLfHDioGuFZC0slq-138" value="" style="rounded=0;whiteSpace=wrap;html=1;" parent="1" vertex="1">
          <mxGeometry x="-346" y="502" width="32" height="60" as="geometry" />
        </mxCell>
        <mxCell id="gRaJhLfHDioGuFZC0slq-140" style="edgeStyle=orthogonalEdgeStyle;rounded=0;orthogonalLoop=1;jettySize=auto;html=1;exitX=0.5;exitY=0;exitDx=0;exitDy=0;entryX=0.5;entryY=1;entryDx=0;entryDy=0;endArrow=none;endFill=0;" parent="1" source="gRaJhLfHDioGuFZC0slq-139" target="gRaJhLfHDioGuFZC0slq-84" edge="1">
          <mxGeometry relative="1" as="geometry" />
        </mxCell>
        <mxCell id="gRaJhLfHDioGuFZC0slq-139" value="" style="rounded=0;whiteSpace=wrap;html=1;" parent="1" vertex="1">
          <mxGeometry x="-196" y="502" width="32" height="60" as="geometry" />
        </mxCell>
        <mxCell id="gRaJhLfHDioGuFZC0slq-146" style="edgeStyle=orthogonalEdgeStyle;rounded=0;orthogonalLoop=1;jettySize=auto;html=1;exitX=0.5;exitY=0;exitDx=0;exitDy=0;entryX=0.5;entryY=1;entryDx=0;entryDy=0;endArrow=none;endFill=0;" parent="1" source="gRaJhLfHDioGuFZC0slq-143" target="gRaJhLfHDioGuFZC0slq-89" edge="1">
          <mxGeometry relative="1" as="geometry" />
        </mxCell>
        <mxCell id="gRaJhLfHDioGuFZC0slq-143" value="" style="rounded=0;whiteSpace=wrap;html=1;" parent="1" vertex="1">
          <mxGeometry x="-1056" y="502" width="32" height="60" as="geometry" />
        </mxCell>
        <mxCell id="gRaJhLfHDioGuFZC0slq-147" style="edgeStyle=orthogonalEdgeStyle;rounded=0;orthogonalLoop=1;jettySize=auto;html=1;exitX=0.5;exitY=0;exitDx=0;exitDy=0;entryX=0.5;entryY=1;entryDx=0;entryDy=0;endArrow=none;endFill=0;" parent="1" source="gRaJhLfHDioGuFZC0slq-144" target="gRaJhLfHDioGuFZC0slq-88" edge="1">
          <mxGeometry relative="1" as="geometry" />
        </mxCell>
        <mxCell id="gRaJhLfHDioGuFZC0slq-144" value="" style="rounded=0;whiteSpace=wrap;html=1;" parent="1" vertex="1">
          <mxGeometry x="-1186" y="502" width="32" height="60" as="geometry" />
        </mxCell>
        <mxCell id="gRaJhLfHDioGuFZC0slq-148" value="" style="endArrow=none;dashed=1;html=1;dashPattern=1 3;strokeWidth=2;rounded=0;" parent="1" edge="1">
          <mxGeometry width="50" height="50" relative="1" as="geometry">
            <mxPoint x="2895" y="410" as="sourcePoint" />
            <mxPoint x="2985" y="410" as="targetPoint" />
          </mxGeometry>
        </mxCell>
        <mxCell id="gRaJhLfHDioGuFZC0slq-149" value="" style="endArrow=none;dashed=1;html=1;dashPattern=1 3;strokeWidth=2;rounded=0;" parent="1" edge="1">
          <mxGeometry width="50" height="50" relative="1" as="geometry">
            <mxPoint x="2795" y="410" as="sourcePoint" />
            <mxPoint x="2885" y="410" as="targetPoint" />
          </mxGeometry>
        </mxCell>
        <mxCell id="gRaJhLfHDioGuFZC0slq-150" value="" style="endArrow=none;dashed=1;html=1;dashPattern=1 3;strokeWidth=2;rounded=0;" parent="1" edge="1">
          <mxGeometry width="50" height="50" relative="1" as="geometry">
            <mxPoint x="1305" y="410" as="sourcePoint" />
            <mxPoint x="1395" y="410" as="targetPoint" />
          </mxGeometry>
        </mxCell>
        <mxCell id="gRaJhLfHDioGuFZC0slq-151" value="" style="endArrow=none;dashed=1;html=1;dashPattern=1 3;strokeWidth=2;rounded=0;" parent="1" edge="1">
          <mxGeometry width="50" height="50" relative="1" as="geometry">
            <mxPoint x="1670" y="410" as="sourcePoint" />
            <mxPoint x="1760" y="410" as="targetPoint" />
          </mxGeometry>
        </mxCell>
        <mxCell id="gRaJhLfHDioGuFZC0slq-156" style="rounded=0;orthogonalLoop=1;jettySize=auto;html=1;exitX=0.5;exitY=0;exitDx=0;exitDy=0;entryX=0.5;entryY=1;entryDx=0;entryDy=0;endArrow=none;endFill=0;" parent="1" source="gRaJhLfHDioGuFZC0slq-153" target="gRaJhLfHDioGuFZC0slq-13" edge="1">
          <mxGeometry relative="1" as="geometry" />
        </mxCell>
        <mxCell id="gRaJhLfHDioGuFZC0slq-153" value="darabszám" style="ellipse;whiteSpace=wrap;html=1;" parent="1" vertex="1">
          <mxGeometry x="1430" y="370" width="100" height="60" as="geometry" />
        </mxCell>
        <mxCell id="gRaJhLfHDioGuFZC0slq-157" style="rounded=0;orthogonalLoop=1;jettySize=auto;html=1;exitX=0.5;exitY=0;exitDx=0;exitDy=0;entryX=0.5;entryY=1;entryDx=0;entryDy=0;endArrow=none;endFill=0;" parent="1" source="gRaJhLfHDioGuFZC0slq-154" target="gRaJhLfHDioGuFZC0slq-13" edge="1">
          <mxGeometry relative="1" as="geometry">
            <mxPoint x="1550" y="350" as="targetPoint" />
          </mxGeometry>
        </mxCell>
        <mxCell id="gRaJhLfHDioGuFZC0slq-154" value="összeg" style="ellipse;whiteSpace=wrap;html=1;" parent="1" vertex="1">
          <mxGeometry x="1554" y="370" width="100" height="60" as="geometry" />
        </mxCell>
        <mxCell id="gRaJhLfHDioGuFZC0slq-158" value="" style="endArrow=none;dashed=1;html=1;dashPattern=1 3;strokeWidth=2;rounded=0;" parent="1" edge="1">
          <mxGeometry width="50" height="50" relative="1" as="geometry">
            <mxPoint x="602.5" y="410" as="sourcePoint" />
            <mxPoint x="680" y="410" as="targetPoint" />
          </mxGeometry>
        </mxCell>
        <mxCell id="gRaJhLfHDioGuFZC0slq-159" value="" style="endArrow=none;dashed=1;html=1;dashPattern=1 3;strokeWidth=2;rounded=0;" parent="1" edge="1">
          <mxGeometry width="50" height="50" relative="1" as="geometry">
            <mxPoint x="702.5" y="410" as="sourcePoint" />
            <mxPoint x="777.5" y="410" as="targetPoint" />
          </mxGeometry>
        </mxCell>
        <mxCell id="gRaJhLfHDioGuFZC0slq-160" value="" style="endArrow=none;dashed=1;html=1;dashPattern=1 3;strokeWidth=2;rounded=0;" parent="1" edge="1">
          <mxGeometry width="50" height="50" relative="1" as="geometry">
            <mxPoint x="-805" y="410" as="sourcePoint" />
            <mxPoint x="-740" y="410" as="targetPoint" />
          </mxGeometry>
        </mxCell>
      </root>
    </mxGraphModel>
  </diagram>
</mxfile>
